<?xml version="1.0" standalone="no"?><!DOCTYPE svg PUBLIC "-//W3C//DTD SVG 1.1//EN" "http://www.w3.org/Graphics/SVG/1.1/DTD/svg11.dtd"><svg t="1522828652646" class="icon" style="" viewBox="0 0 1024 1024" version="1.1" xmlns="http://www.w3.org/2000/svg" p-id="5939" xmlns:xlink="http://www.w3.org/1999/xlink" width="200" height="200"><defs><style type="text/css"></style></defs><path d="M544.059897 959.266898h-64.949141c-228.633593 0-415.697442-187.063849-415.697442-415.697442v-64.949141c0-228.633593 187.063849-415.697442 415.697442-415.697442h64.949141c228.633593 0 415.697442 187.063849 415.697442 415.697442v64.949141C959.756315 772.203049 772.692466 959.266898 544.059897 959.266898z" fill="#DD4B39" p-id="5940"></path><path d="M404.640504 481.002896l169.900459 0 0 71.092453-169.900459 0 0-71.092453Z" fill="#FFFFFF" p-id="5941"></path><path d="M798.204617 484.760555L735.568432 484.760555 735.568432 422.542115 690.888125 422.542115 690.888125 484.760555 628.25194 484.760555 628.25194 529.858608 690.888125 529.858608 690.888125 592.494793 735.568432 592.494793 735.568432 529.858608 798.204617 529.858608Z" fill="#FFFFFF" p-id="5942"></path><path d="M506.514022 536.732974c-8.975379 50.678228-53.208249 87.925128-106.462572 87.925128-44.8943 0-100.64076-41.349609-100.64076-106.903866 0-60.970323 43.636969-108.157102 100.64076-108.157103 27.780057 0 53.10586 10.483562 72.260707 27.697122l52.594941-51.762523c-31.867407-29.750012-74.64124-47.965956-121.676484-47.965955-98.503912 0-178.356728 79.852816-178.356728 178.356728s79.852816 178.356728 178.356728 178.356728c92.23159 0 160.870814-57.938599 171.310349-142.183884L506.514022 536.732974z" fill="#FFFFFF" p-id="5943"></path></svg>